<svg id="Icon_user_cirlce" xmlns="http://www.w3.org/2000/svg" width="32" height="32" viewBox="0 0 32 32">
  <g id="Icon_user_cirlce-2" data-name="Icon_user_cirlce" transform="translate(2 2)">
    <path id="Shape" d="M14,28A14,14,0,1,1,28,14,14.016,14.016,0,0,1,14,28Zm0-11.2a10.385,10.385,0,0,0-4.77,1.144A10.6,10.6,0,0,0,5.6,21a10.594,10.594,0,0,0,3.63,3.056,10.521,10.521,0,0,0,9.54,0A10.593,10.593,0,0,0,22.4,21a10.6,10.6,0,0,0-3.63-3.057A10.385,10.385,0,0,0,14,16.8ZM14,7a4.2,4.2,0,1,0,4.2,4.2A4.2,4.2,0,0,0,14,7Z" fill="#ff631c"/>
  </g>
</svg>
